PathFileType	4	(X/Y/Z)	C:/Users/beibeiliu/ov580/test_trc\sequence.40_training_dense_left.trc
DataRate	CameraRate	NumFrames	NumMarkers	Units	OrigDataRate	OrigDataStartFrame	OrigNumFrames
120	120	21	19	mm	120	251	400
Frame#	Time	ThumbCMC			ThumbMCP			ThumbIP			ThumbTip			IndexMCP			IndexPIP			IndexTip			MiddleMCP			MiddlePIP			MiddleTip			RingMCP			RingPIP			RingTip			PinkyMCP			PinkyPIP			PinkyTip			BackHand1			BackHand2			BackHand3	
		X0	Y0	Z0	X1	Y1	Z1	X2	Y2	Z2	X3	Y3	Z3	X4	Y4	Z4	X5	Y5	Z5	X6	Y6	Z6	X7	Y7	Z7	X8	Y8	Z8	X9	Y9	Z9	X10	Y10	Z10	X11	Y11	Z11	X12	Y12	Z12	X13	Y13	Z13	X14	Y14	Z14	X15	Y15	Z15	X16	Y16	Z16	X17	Y17	Z17	X18	Y18	Z18	
250	2.08333	-208.271	38.3387	43.926	-188.158	33.1805	17.2998	-185.391	22.6351	-4.68545	-182.79	10.2785	-18.7624	-232.836	38.5955	-14.4441	-225.098	27.0904	-36.1592	-200.607	15.0069	-51.4915	-241.368	13.8341	-18.5522	-223.363	7.42997	-38.7163	-197.328	-5.29982	-38.523	-247.484	-0.222871	-5.08744	-239.2	-11.3024	-30.1112	-218.393	-13.7794	-42.2441	-249.413	-17.0915	11.6671	-250.261	-26.3778	-9.66862	-244.283	-31.0748	-28.7385	-249.217	9.65675	41.2323	-242.914	12.194	66.1628	-238.609	32.6101	49.9887	
251	2.09167	-210.164	42.9757	44.9567	-191.949	36.4195	19.6321	-187.809	25.7246	-3.45786	-186.629	11.7097	-20.8756	-237.202	32.4438	-16.6755	-225.64	25.1888	-38.0061	-205.531	17.8254	-49.9688	-242.033	12.312	-17.5454	-226.576	2.96469	-38.2615	-197.054	-3.92551	-39.4884	-248.559	-6.64364	-7.91195	-237.87	-11.917	-30.4763	-214.931	-17.3926	-42.1702	-246.112	-20.9488	12.5161	-248.025	-30.51	-8.70176	-239.017	-34.8124	-31.5613	-250.954	6.51572	38.8265	-246.154	9.94086	66.733	-245.518	28.8657	48.3468	
252	2.1	-216.171	41.0337	45.0258	-197.204	39.5371	14.3231	-190.435	31.2522	-3.62418	-184.706	17.8313	-21.8891	-240.941	31.4597	-14.3135	-227.392	20.7431	-39.3743	-205.934	14.6513	-51.9336	-244.55	6.85907	-18.859	-228.03	2.54899	-39.3851	-194.366	-2.62698	-41.2764	-247.658	-9.69268	-6.69798	-238.125	-15.0263	-28.1682	-216.477	-20.3883	-41.1891	-246.489	-29.1663	11.3486	-243.956	-32.8436	-12.0238	-235.651	-36.5149	-30.4708	-249.959	3.01005	40.526	-248.102	8.09095	65.8288	-248.289	28.8787	47.4283	
253	2.10833	-217.782	45.0868	45.3663	-201.469	39.5042	18.0642	-192.997	35.0006	-4.74766	-185.32	23.7458	-23.4205	-243.778	24.6809	-17.0216	-231.671	23.2744	-37.4391	-209.438	19.0226	-51.6746	-245.078	5.17477	-19.1092	-230.871	1.40014	-39.7214	-199.335	-3.39701	-42.9255	-247.012	-14.7872	-8.63819	-235.888	-20.4583	-29.0251	-212.034	-20.2944	-42.7367	-244.913	-30.3248	11.5225	-241.796	-36.5955	-10.9296	-236.339	-42.7967	-27.5326	-253.056	-1.54875	38.0862	-250.427	3.65575	63.506	-248.816	28.5124	44.9267	
254	2.11667	-223.276	41.3959	41.8733	-202.962	43.1944	16.5814	-195.819	36.9539	-2.48655	-189.025	24.3459	-23.8125	-244.419	27.6546	-14.9307	-231.765	23.7191	-38.2608	-207.299	18.0566	-51.7974	-247.074	2.31825	-13.8073	-231.28	-1.09907	-39.4208	-196.74	-3.04104	-44.8485	-247.088	-15.2738	-4.90429	-234.277	-19.0532	-30.9816	-212.065	-21.1436	-42.2462	-242.774	-32.6399	13.4595	-241.453	-36.5373	-7.73714	-234.071	-42.147	-28.4632	-252.943	-1.26626	38.6659	-248.639	4.09106	64.0748	-250.443	26.8102	47.8428	
255	2.125	-224.999	39.5734	43.2018	-206.577	42.7066	19.9217	-197.926	38.9855	-1.98119	-191.676	26.4083	-22.3994	-246.395	25.5964	-13.8645	-232.164	19.7622	-39.032	-211.972	16.08	-50.7159	-245.957	5.07753	-17.0779	-231.415	-3.62513	-37.373	-199.829	-5.31985	-44.3671	-246.522	-13.8245	-4.86491	-233.333	-22.6087	-29.8027	-212.271	-19.2057	-44.0739	-243.466	-32.5629	10.9879	-239.544	-41.6028	-4.5917	-232.011	-46.4718	-27.3819	-251.935	-2.90687	39.2446	-249.844	2.80897	65.0627	-252.508	22.1818	49.7421	
256	2.13333	-227.307	42.3582	46.3508	-209.17	45.0377	19.6509	-203.603	37.7687	-1.54067	-193.451	31.1087	-24.2099	-247.24	25.4843	-12.5259	-232.415	22.8758	-39.8907	-210.559	17.5187	-51.3475	-245.942	-2.11123	-13.9615	-230.647	-4.78237	-38.5504	-201.222	-3.38862	-45.5283	-244.634	-16.4349	-7.9868	-233.568	-22.6179	-28.9533	-212.778	-19.6492	-42.2587	-240.613	-33.839	13.3664	-239.606	-38.4466	-7.25054	-232.013	-44.4441	-25.618	-250.944	-6.8549	39.0106	-251.442	-0.255388	65.5927	-254.578	18.3665	49.7687	
257	2.14167	-230.495	43.4104	45.8862	-213.816	46.9727	17.9377	-206.55	40.7927	0.258009	-196.656	33.1977	-20.8847	-248.747	22.7063	-18.1435	-232.838	16.6773	-39.1496	-212.851	16.4106	-49.6398	-246.746	0.531411	-17.6521	-225.684	-5.67239	-40.662	-199.237	0.83913	-46.0506	-243.628	-18.5747	-3.30014	-232.547	-23.8735	-28.2236	-213.574	-16.7165	-42.7584	-236.405	-34.6034	12.8647	-233.813	-41.4019	-8.69904	-227.532	-48.3678	-26.9263	-249.803	-8.80971	37.2206	-251.313	-3.6725	65.8599	-255.302	15.2492	43.5711	
258	2.15	-235.135	40.308	44.4499	-217.707	45.659	22.7532	-208.532	46.8509	-3.86793	-200.383	39.2103	-21.1075	-249.201	18.2895	-16.6779	-235.607	15.6611	-38.4989	-213.794	17.7794	-50.0798	-245.422	-6.16575	-16.3024	-226.634	-3.48031	-41.7521	-196.413	-1.02448	-45.0941	-241.134	-20.667	-7.26213	-230.275	-21.8537	-31.3631	-207.573	-18.532	-45.4577	-234.894	-35.3586	10.2133	-229.328	-45.629	-9.24433	-222.861	-46.8705	-24.3338	-249.351	-12.8104	40.3823	-251.618	-3.48629	63.4387	-256.402	13.5617	45.4852	
259	2.15833	-238.149	40.6271	41.1444	-221.398	47.9232	18.4787	-213.954	45.9556	-5.69265	-202.094	44.4999	-23.4537	-250.603	15.0089	-16.6227	-238.579	19.4385	-39.37	-214.868	21.5356	-51.1888	-245.715	-6.32744	-17.2629	-230.306	-6.4226	-40.1068	-197.857	3.71264	-47.6494	-238.809	-24.4513	-7.09323	-229.18	-25.2007	-28.235	-208.155	-15.6574	-45.3577	-231.67	-33.5691	14.1253	-225.118	-46.083	-5.85854	-218.964	-45.9791	-27.8364	-249.15	-15.9445	41.8542	-250.132	-5.57998	64.1418	-260.815	14.818	43.762	
260	2.16667	-240.409	37.8092	41.7134	-225.463	48.1642	17.8034	-217.598	47.8057	-3.82854	-207.015	45.5938	-20.8513	-250.233	12.7489	-18.8934	-237.236	12.9677	-37.5347	-214.252	21.5131	-51.4853	-245.556	-6.6424	-16.5961	-230.408	-6.4547	-40.6097	-199.701	4.29623	-49.4363	-239.25	-21.192	-4.70844	-229.608	-24.2111	-28.9121	-208.958	-17.7837	-43.6736	-229.273	-38.3368	9.53507	-225.446	-44.3179	-5.49851	-216.025	-46.0022	-29.87	-246.497	-16.9804	40.9112	-249.089	-8.81573	64.2716	-257.987	8.49079	45.3979	
261	2.175	-242.278	37.7873	45.2302	-227.624	48.0634	17.9282	-220.26	45.9661	-6.64106	-210.976	45.8512	-24.3064	-252.19	15.7619	-19.1272	-236.084	17.2815	-41.199	-211.899	19.176	-50.0775	-245.273	-8.34029	-18.0675	-227.095	-8.90976	-41.0502	-202.382	0.476842	-48.3816	-237.185	-24.6015	-3.48726	-225.48	-28.5643	-30.0333	-209.436	-17.2944	-44.8829	-227.923	-35.1664	12.9059	-221.864	-43.4692	-5.99	-212.995	-42.8779	-28.3742	-245.894	-16.3526	36.5648	-248.418	-11.9017	62.2305	-261.525	11.9203	44.7841	
262	2.18333	-244.186	37.1866	44.6362	-230.694	43.8586	17.3724	-223.299	47.9009	-1.33384	-212.917	45.7887	-27.4584	-250.564	10.3028	-18.8622	-235.256	17.2456	-41.2127	-209.701	20.5784	-49.6529	-244.19	-8.68797	-15.383	-228.83	-7.39252	-41.4166	-200.124	1.66232	-49.227	-236.241	-25.8233	-5.38909	-224.53	-27.4816	-30.8899	-210.78	-17.1499	-45.2035	-226.164	-38.6071	11.9955	-218.425	-44.8467	-9.32147	-213.694	-44.7234	-26.0793	-247.895	-13.7492	40.4175	-247.913	-11.056	67.1413	-258.64	7.3235	46.3629	
263	2.19167	-245.534	39.8646	44.2511	-232.538	47.6771	15.0574	-224.839	47.9701	-6.28957	-215.946	44.2963	-25.1711	-252.236	12.6616	-18.9666	-234.713	15.6557	-40.8103	-213.163	24.6596	-47.7526	-244.634	-9.62353	-15.6946	-227.374	-8.76262	-42.2388	-199.355	4.33096	-50.8498	-238.309	-23.4109	-5.57043	-226.415	-28.6921	-27.7587	-211.695	-17.0492	-45.7948	-225.567	-34.9636	12.2714	-219.782	-41.9249	-10.4478	-210.656	-43.405	-29.1471	-244.371	-17.3061	39.1819	-245.969	-10.6255	66.4015	-261.059	8.90318	42.163	
264	2.2	-244.47	35.5546	45.2571	-231.739	45.9232	20.5728	-225.375	47.0764	-7.80752	-216.901	46.0165	-23.9657	-251.321	8.9938	-17.7303	-238.578	16.4747	-37.7949	-213.043	24.3275	-44.8166	-243.445	-13.003	-18.6255	-229.763	-7.20876	-41.4774	-204.425	4.72476	-51.1382	-237.163	-25.6687	-3.20019	-228.246	-25.9941	-29.8959	-212.672	-17.1738	-45.1238	-225.23	-38.0577	10.4139	-220.939	-43.328	-6.77037	-212.833	-41.0538	-25.4985	-245.953	-14.1693	38.9004	-246.356	-10.466	63.5288	-261.381	7.08818	46.711	
265	2.20833	-246.187	36.8156	40.4883	-232.299	43.6703	19.4449	-227.25	48.1726	-4.12144	-218.95	43.016	-24.0429	-252.422	9.61454	-14.0362	-233.573	16.5121	-38.9133	-211.825	24.6318	-41.2972	-245.914	-10.3124	-15.3922	-230.515	-11.4102	-38.7181	-204.342	2.27023	-50.7552	-238.55	-24.8292	-6.5716	-225.833	-29.188	-28.9106	-212.559	-19.4935	-44.0692	-225.861	-36.6871	12.7512	-218.886	-43.0158	-10.1744	-209.706	-41.6735	-27.9572	-247.023	-16.7866	41.6423	-248.426	-11.9436	63.2371	-263.161	8.62078	45.3536	
266	2.21667	-246.557	36.1286	41.0091	-233.997	41.8926	17.0993	-228.5	45.3526	-4.55167	-220.267	40.8137	-25.1847	-252.669	8.47289	-14.5956	-237.83	15.4979	-37.4251	-213.1	26.5469	-41.0104	-244.714	-13.9265	-15.067	-230.283	-10.9104	-40.1127	-202.801	2.75461	-52.2102	-238.746	-25.3275	-4.49156	-226.853	-28.7481	-27.7073	-207.807	-19.8436	-47.443	-226.252	-37.2709	10.3506	-218.403	-45.2157	-8.83506	-211.409	-42.153	-27.8243	-248.424	-17.3536	38.526	-245.138	-12.8442	65.6215	-261.805	7.73378	46.7932	
267	2.225	-246.552	36.2255	42.4141	-235.056	44.866	15.7696	-227.696	43.3639	-2.89112	-220.256	42.0354	-26.8425	-254.358	9.60183	-15.0292	-234.158	16.4884	-38.2405	-207.572	25.5902	-39.2529	-245.31	-12.4635	-18.6471	-231.873	-10.5047	-39.332	-206.694	3.06781	-53.131	-236.811	-27.9196	-2.24458	-226.457	-28.0764	-30.281	-211.325	-21.4563	-44.6973	-227.237	-35.5875	11.625	-220.084	-43.775	-7.47103	-211.715	-44.4369	-26.1778	-245.932	-20.709	40.8036	-244.819	-12.614	67.4515	-260.232	6.32272	47.5493	
268	2.23333	-247.009	37.1762	43.9706	-234.253	41.5812	17.3443	-228.813	44.8913	-8.11187	-219.956	41.8388	-24.016	-253.323	12.2224	-19.3836	-237.916	15.0902	-37.1835	-207.492	26.4854	-39.5933	-244.979	-13.3034	-17.2793	-227.981	-10.8324	-41.8035	-208.685	0.046338	-52.2353	-236.157	-28.462	-4.15914	-227.449	-27.1616	-28.687	-212.522	-20.5008	-42.9241	-224.979	-39.8577	12.9329	-221.018	-43.5047	-7.11735	-209.588	-42.1729	-28.1565	-246.991	-19.8597	41.1353	-246.91	-10.8574	67.8123	-261.358	3.51831	44.6307	
269	2.24167	-247.103	39.8071	44.9923	-234.39	45.5341	15.1813	-227.985	44.241	-5.02511	-218.371	40.6549	-28.8765	-253.265	10.6224	-15.3991	-235.264	13.189	-37.2626	-210.477	26.9071	-39.7387	-244.711	-14.2723	-13.3668	-231.52	-12.8951	-38.4404	-207.179	-1.6377	-51.4088	-238.931	-25.9312	-7.06215	-226.337	-27.5152	-31.5296	-207.07	-21.0446	-46.5147	-225.9	-37.3326	14.7475	-219.762	-44.5269	-6.24565	-210.611	-45.0902	-23.8201	-245.378	-17.2563	41.6142	-249.984	-9.45467	65.8898	-261.35	9.4158	47.5251	
270	2.25	-245.816	33.8482	45.0114	-234.246	44.2618	14.7496	-227.774	44.7438	-6.68956	-219.246	42.4427	-25.5987	-253.571	8.54612	-16.8912	-233.964	10.84	-36.3992	-210.613	24.3238	-39.1953	-245.786	-13.1669	-17.957	-231.166	-13.795	-38.9885	-203.858	0.81452	-51.2271	-238.334	-26.8324	-4.92057	-226.576	-32.0323	-26.7048	-208.767	-19.3604	-46.8712	-225.466	-36.9562	15.4498	-221.982	-43.0758	-4.13126	-208.981	-46.9081	-27.0743	-245.666	-18.4001	41.27	-246.475	-10.557	66.094	-262.207	5.36381	47.3091	
